<svg xmlns="http://www.w3.org/2000/svg" xmlns:xlink="http://www.w3.org/1999/xlink" viewBox="0 0 82.61 82.61"><defs><style>.cls-1{fill:url(#무제_그라디언트_2);}.cls-2{fill:#fff;}</style><linearGradient id="무제_그라디언트_2" x1="41.3" x2="41.3" y2="82.61" gradientUnits="userSpaceOnUse"><stop offset="0" stop-color="#fff"/><stop offset="0.98"/></linearGradient></defs><title>자산 1</title><g id="레이어_2" data-name="레이어 2"><g id="레이어_1-2" data-name="레이어 1"><circle class="cls-1" cx="41.3" cy="41.3" r="41.3"/><path class="cls-2" d="M13.18,34.57V16.21h6.67V35.16c0,7,2.4,9.29,6.32,9.29s6.5-2.34,6.5-9.29V16.21h6.4V34.57c0,11.1-4.73,15.66-12.9,15.66S13.18,45.67,13.18,34.57Z"/><path class="cls-2" d="M47.21,16.21H58.38c7.54,0,13.33,2.62,13.33,10.67,0,7.76-5.84,11.26-13.15,11.26H54V50.23h-6.8ZM58.1,32.76c4.69,0,6.94-2,6.94-5.88s-2.48-5.29-7.17-5.29H54V32.76Z"/><path class="cls-2" d="M18,64.55V52.32h2.79V64.69c0,.63.3.84.57.84a1.51,1.51,0,0,0,.38,0l.34,2.08a3.86,3.86,0,0,1-1.45.25C18.73,67.82,18,66.54,18,64.55Z"/><path class="cls-2" d="M24.46,63.81V59.07H23V57l1.64-.13L24.91,54h2.35v2.86H29.9v2.21H27.26v4.74c0,1.22.5,1.79,1.45,1.79a3.16,3.16,0,0,0,1.05-.22l.46,2a6.93,6.93,0,0,1-2.25.4C25.43,67.82,24.46,66.22,24.46,63.81Z"/><path class="cls-2" d="M40.66,55h2.51l.21,2.07h.08a4.07,4.07,0,0,1,3.33-2.37,3.48,3.48,0,0,1,1.39.25l-.55,2.66a3.84,3.84,0,0,0-1.21-.19c-.93,0-2,.61-2.7,2.31v7H40.66Z"/><path class="cls-2" d="M48.81,60.91c0-3.92,2.7-6.18,5.63-6.18s5.63,2.26,5.63,6.18-2.7,6.14-5.63,6.14S48.81,64.78,48.81,60.91Zm8.12,0c0-2.22-.9-3.66-2.49-3.66S52,58.69,52,60.91s.9,3.62,2.49,3.62S56.93,63.11,56.93,60.91Z"/><path class="cls-2" d="M62.51,62.65v-5.2H60.86V55.17l1.8-.14L63,51.89h2.58V55h2.89v2.42H65.59v5.2c0,1.34.54,2,1.59,2a3.52,3.52,0,0,0,1.15-.25l.5,2.24a7.49,7.49,0,0,1-2.47.44C63.58,67.05,62.51,65.29,62.51,62.65Z"/></g></g></svg>